<?xml version="1.0" encoding="UTF-8" standalone="no"?>
<!DOCTYPE svg PUBLIC "-//W3C//DTD SVG 1.1//EN"
 "http://www.w3.org/Graphics/SVG/1.1/DTD/svg11.dtd">
<!-- Generated by graphviz version 2.50.0 (0)
 -->
<!-- Pages: 1 -->
<svg width="497pt" height="285pt"
 viewBox="0.00 0.00 497.03 284.72" xmlns="http://www.w3.org/2000/svg" xmlns:xlink="http://www.w3.org/1999/xlink">
<g id="graph0" class="graph" transform="scale(1 1) rotate(0) translate(4 280.72)">
<polygon fill="white" stroke="transparent" points="-4,4 -4,-280.72 493.03,-280.72 493.03,4 -4,4"/>
<!-- &#45; sh__m_83940 -->
<g id="node1" class="node">
<title>&#45; sh__m_83940</title>
<ellipse fill="#ff7f00" stroke="black" cx="278.67" cy="-109.95" rx="66.09" ry="18"/>
<text text-anchor="middle" x="278.67" y="-106.25" font-family="Times New Roman,serif" font-size="14.00">&#45; sh__m_83940</text>
</g>
<!-- blackcote45234 -->
<g id="node2" class="node">
<title>blackcote45234</title>
<ellipse fill="#b2df8a" stroke="black" cx="225.07" cy="-18" rx="66.09" ry="18"/>
<text text-anchor="middle" x="225.07" y="-14.3" font-family="Times New Roman,serif" font-size="14.00">blackcote45234</text>
</g>
<!-- &#45; sh__m_83940&#45;&gt;blackcote45234 -->
<g id="edge1" class="edge">
<title>&#45; sh__m_83940&#45;&gt;blackcote45234</title>
<path fill="none" stroke="black" d="M268.08,-91.78C258.63,-75.56 244.85,-51.93 235.46,-35.82"/>
</g>
<!-- wichie007 -->
<g id="node6" class="node">
<title>wichie007</title>
<ellipse fill="#ff7f00" stroke="black" cx="323.08" cy="-179.76" rx="47.39" ry="18"/>
<text text-anchor="middle" x="323.08" y="-176.06" font-family="Times New Roman,serif" font-size="14.00">wichie007</text>
</g>
<!-- &#45; sh__m_83940&#45;&gt;wichie007 -->
<g id="edge7" class="edge">
<title>&#45; sh__m_83940&#45;&gt;wichie007</title>
<path fill="none" stroke="black" d="M290.11,-127.93C296.79,-138.43 305.19,-151.63 311.84,-162.08"/>
</g>
<!-- viktoriiap_58090 -->
<g id="node8" class="node">
<title>viktoriiap_58090</title>
<ellipse fill="#fb9a99" stroke="black" cx="251.4" cy="-228.9" rx="71.49" ry="18"/>
<text text-anchor="middle" x="251.4" y="-225.2" font-family="Times New Roman,serif" font-size="14.00">viktoriiap_58090</text>
</g>
<!-- &#45; sh__m_83940&#45;&gt;viktoriiap_58090 -->
<g id="edge8" class="edge">
<title>&#45; sh__m_83940&#45;&gt;viktoriiap_58090</title>
<path fill="none" stroke="black" d="M274.53,-128.01C269.41,-150.37 260.73,-188.23 255.58,-210.67"/>
</g>
<!-- &#45; 7floor -->
<g id="node3" class="node">
<title>&#45; 7floor</title>
<ellipse fill="#b15928" stroke="black" cx="174.93" cy="-184.82" rx="37.89" ry="18"/>
<text text-anchor="middle" x="174.93" y="-181.12" font-family="Times New Roman,serif" font-size="14.00">&#45; 7floor</text>
</g>
<!-- part1zan99 -->
<g id="node4" class="node">
<title>part1zan99</title>
<ellipse fill="#b2df8a" stroke="black" cx="113.95" cy="-258.72" rx="50.09" ry="18"/>
<text text-anchor="middle" x="113.95" y="-255.02" font-family="Times New Roman,serif" font-size="14.00">part1zan99</text>
</g>
<!-- &#45; 7floor&#45;&gt;part1zan99 -->
<g id="edge2" class="edge">
<title>&#45; 7floor&#45;&gt;part1zan99</title>
<path fill="none" stroke="black" d="M161.09,-201.59C151.32,-213.43 138.26,-229.25 128.37,-241.25"/>
</g>
<!-- &#45; 7floor&#45;&gt;wichie007 -->
<g id="edge9" class="edge">
<title>&#45; 7floor&#45;&gt;wichie007</title>
<path fill="none" stroke="black" d="M212.7,-183.53C231.9,-182.87 255.43,-182.07 275.82,-181.37"/>
</g>
<!-- sh__m_83940 -->
<g id="node7" class="node">
<title>sh__m_83940</title>
<ellipse fill="#b2df8a" stroke="black" cx="129.71" cy="-91.96" rx="61.19" ry="18"/>
<text text-anchor="middle" x="129.71" y="-88.26" font-family="Times New Roman,serif" font-size="14.00">sh__m_83940</text>
</g>
<!-- &#45; 7floor&#45;&gt;sh__m_83940 -->
<g id="edge4" class="edge">
<title>&#45; 7floor&#45;&gt;sh__m_83940</title>
<path fill="none" stroke="black" d="M166.21,-166.92C158.2,-150.47 146.4,-126.24 138.4,-109.81"/>
</g>
<!-- &#45; 7floor&#45;&gt;viktoriiap_58090 -->
<g id="edge5" class="edge">
<title>&#45; 7floor&#45;&gt;viktoriiap_58090</title>
<path fill="none" stroke="black" d="M199.13,-198.77C206.57,-203.06 214.83,-207.82 222.55,-212.27"/>
</g>
<!-- godeaterduk -->
<g id="node9" class="node">
<title>godeaterduk</title>
<ellipse fill="#b2df8a" stroke="black" cx="53.95" cy="-168.35" rx="53.89" ry="18"/>
<text text-anchor="middle" x="53.95" y="-164.65" font-family="Times New Roman,serif" font-size="14.00">godeaterduk</text>
</g>
<!-- &#45; 7floor&#45;&gt;godeaterduk -->
<g id="edge6" class="edge">
<title>&#45; 7floor&#45;&gt;godeaterduk</title>
<path fill="none" stroke="black" d="M138.63,-179.88C127.77,-178.4 115.67,-176.75 104.09,-175.18"/>
</g>
<!-- &#45; part1zan99 -->
<g id="node5" class="node">
<title>&#45; part1zan99</title>
<ellipse fill="#b2df8a" stroke="black" cx="433.78" cy="-189.39" rx="55.49" ry="18"/>
<text text-anchor="middle" x="433.78" y="-185.69" font-family="Times New Roman,serif" font-size="14.00">&#45; part1zan99</text>
</g>
<!-- &#45; part1zan99&#45;&gt;wichie007 -->
<g id="edge3" class="edge">
<title>&#45; part1zan99&#45;&gt;wichie007</title>
<path fill="none" stroke="black" d="M380.38,-184.74C376.73,-184.43 373.07,-184.11 369.46,-183.79"/>
</g>
</g>
</svg>
