<?xml version="1.0" encoding="UTF-8" standalone="no"?>
<!DOCTYPE svg PUBLIC "-//W3C//DTD SVG 1.1//EN"
 "http://www.w3.org/Graphics/SVG/1.1/DTD/svg11.dtd">
<!-- Generated by graphviz version 2.50.0 (0)
 -->
<!-- Pages: 1 -->
<svg width="577pt" height="254pt"
 viewBox="0.00 0.00 576.91 254.00" xmlns="http://www.w3.org/2000/svg" xmlns:xlink="http://www.w3.org/1999/xlink">
<g id="graph0" class="graph" transform="scale(1 1) rotate(0) translate(4 250)">
<polygon fill="white" stroke="transparent" points="-4,4 -4,-250 572.91,-250 572.91,4 -4,4"/>
<!-- 7. wichie -->
<g id="node1" class="node">
<title>7. wichie</title>
<ellipse fill="#fdbf6f" stroke="black" cx="288.38" cy="-88" rx="43.59" ry="18"/>
<text text-anchor="middle" x="288.38" y="-84.3" font-family="Times New Roman,serif" font-size="14.00">7. wichie</text>
</g>
<!-- viktoriiap_58090 -->
<g id="node2" class="node">
<title>viktoriiap_58090</title>
<ellipse fill="#b15928" stroke="black" cx="165.33" cy="-88" rx="71.49" ry="18"/>
<text text-anchor="middle" x="165.33" y="-84.3" font-family="Times New Roman,serif" font-size="14.00">viktoriiap_58090</text>
</g>
<!-- 7. wichie&#45;&gt;viktoriiap_58090 -->
<g id="edge1" class="edge">
<title>7. wichie&#45;&gt;viktoriiap_58090</title>
<path fill="none" stroke="black" d="M244.65,-88C242.17,-88 239.64,-88 237.08,-88"/>
</g>
<!-- 2. 7floor -->
<g id="node3" class="node">
<title>2. 7floor</title>
<ellipse fill="#fdbf6f" stroke="black" cx="478.23" cy="-158" rx="41.69" ry="18"/>
<text text-anchor="middle" x="478.23" y="-154.3" font-family="Times New Roman,serif" font-size="14.00">2. 7floor</text>
</g>
<!-- sh__m_83940 -->
<g id="node4" class="node">
<title>sh__m_83940</title>
<ellipse fill="#b15928" stroke="black" cx="366.2" cy="-158" rx="61.19" ry="18"/>
<text text-anchor="middle" x="366.2" y="-154.3" font-family="Times New Roman,serif" font-size="14.00">sh__m_83940</text>
</g>
<!-- 2. 7floor&#45;&gt;sh__m_83940 -->
<g id="edge2" class="edge">
<title>2. 7floor&#45;&gt;sh__m_83940</title>
<path fill="none" stroke="black" d="M436.51,-158C433.53,-158 430.48,-158 427.42,-158"/>
</g>
<!-- 6. wichie -->
<g id="node5" class="node">
<title>6. wichie</title>
<ellipse fill="#fdbf6f" stroke="black" cx="253.55" cy="-158" rx="43.59" ry="18"/>
<text text-anchor="middle" x="253.55" y="-154.3" font-family="Times New Roman,serif" font-size="14.00">6. wichie</text>
</g>
<!-- 6. wichie&#45;&gt;sh__m_83940 -->
<g id="edge3" class="edge">
<title>6. wichie&#45;&gt;sh__m_83940</title>
<path fill="none" stroke="black" d="M297.1,-158C299.7,-158 302.34,-158 304.99,-158"/>
</g>
<!-- 1. 7floor -->
<g id="node6" class="node">
<title>1. 7floor</title>
<ellipse fill="#fdbf6f" stroke="black" cx="421.97" cy="-18" rx="41.69" ry="18"/>
<text text-anchor="middle" x="421.97" y="-14.3" font-family="Times New Roman,serif" font-size="14.00">1. 7floor</text>
</g>
<!-- godeaterduk -->
<g id="node7" class="node">
<title>godeaterduk</title>
<ellipse fill="#b15928" stroke="black" cx="317.05" cy="-18" rx="53.89" ry="18"/>
<text text-anchor="middle" x="317.05" y="-14.3" font-family="Times New Roman,serif" font-size="14.00">godeaterduk</text>
</g>
<!-- 1. 7floor&#45;&gt;godeaterduk -->
<g id="edge4" class="edge">
<title>1. 7floor&#45;&gt;godeaterduk</title>
<path fill="none" stroke="black" d="M380.2,-18C377.23,-18 374.21,-18 371.18,-18"/>
</g>
<!-- 3. 7floor -->
<g id="node8" class="node">
<title>3. 7floor</title>
<ellipse fill="#fdbf6f" stroke="black" cx="41.6" cy="-88" rx="41.69" ry="18"/>
<text text-anchor="middle" x="41.6" y="-84.3" font-family="Times New Roman,serif" font-size="14.00">3. 7floor</text>
</g>
<!-- 3. 7floor&#45;&gt;viktoriiap_58090 -->
<g id="edge5" class="edge">
<title>3. 7floor&#45;&gt;viktoriiap_58090</title>
<path fill="none" stroke="black" d="M83.49,-88C86.85,-88 90.31,-88 93.8,-88"/>
</g>
<!-- 5. wichie -->
<g id="node9" class="node">
<title>5. wichie</title>
<ellipse fill="#fdbf6f" stroke="black" cx="211.55" cy="-18" rx="43.59" ry="18"/>
<text text-anchor="middle" x="211.55" y="-14.3" font-family="Times New Roman,serif" font-size="14.00">5. wichie</text>
</g>
<!-- 5. wichie&#45;&gt;godeaterduk -->
<g id="edge6" class="edge">
<title>5. wichie&#45;&gt;godeaterduk</title>
<path fill="none" stroke="black" d="M255.37,-18C257.86,-18 260.38,-18 262.9,-18"/>
</g>
<!-- 8. wichie -->
<g id="node10" class="node">
<title>8. wichie</title>
<ellipse fill="#fdbf6f" stroke="black" cx="525.36" cy="-228" rx="43.59" ry="18"/>
<text text-anchor="middle" x="525.36" y="-224.3" font-family="Times New Roman,serif" font-size="14.00">8. wichie</text>
</g>
<!-- part1zan99 -->
<g id="node11" class="node">
<title>part1zan99</title>
<ellipse fill="#b15928" stroke="black" cx="423.76" cy="-228" rx="50.09" ry="18"/>
<text text-anchor="middle" x="423.76" y="-224.3" font-family="Times New Roman,serif" font-size="14.00">part1zan99</text>
</g>
<!-- 8. wichie&#45;&gt;part1zan99 -->
<g id="edge7" class="edge">
<title>8. wichie&#45;&gt;part1zan99</title>
<path fill="none" stroke="black" d="M481.69,-228C479.11,-228 476.5,-228 473.89,-228"/>
</g>
<!-- 4. 7floor -->
<g id="node12" class="node">
<title>4. 7floor</title>
<ellipse fill="#fdbf6f" stroke="black" cx="321.6" cy="-228" rx="41.69" ry="18"/>
<text text-anchor="middle" x="321.6" y="-224.3" font-family="Times New Roman,serif" font-size="14.00">4. 7floor</text>
</g>
<!-- 4. 7floor&#45;&gt;part1zan99 -->
<g id="edge8" class="edge">
<title>4. 7floor&#45;&gt;part1zan99</title>
<path fill="none" stroke="black" d="M363.45,-228C366.75,-228 370.11,-228 373.47,-228"/>
</g>
</g>
</svg>
